<svg width="92" height="38" viewBox="0 0 92 38" fill="none" xmlns="http://www.w3.org/2000/svg">
<path d="M57.0622 29.1242C56.156 30.3937 54.9997 31.3937 53.5974 32.1125C52.9959 32.425 52.2849 32.6399 51.4841 32.7493C51.3591 32.7649 51.1404 32.7649 50.824 32.7454C50.3904 32.718 50.1443 32.3899 50.2849 31.9641C50.3083 31.8938 50.3396 31.8274 50.3747 31.7532C50.5037 31.5149 50.7458 31.093 50.8787 30.7766C51.3552 29.6907 51.699 28.5578 51.9178 27.3743C51.949 27.2063 51.9685 27.0149 51.9842 26.7923C51.9881 26.7376 51.9646 26.7142 51.9099 26.7063C51.5506 26.6907 51.156 26.7024 50.781 26.6673C50.3553 26.6282 50.0584 26.6087 49.8904 26.6087C49.5818 26.6126 49.2967 26.597 49.0271 26.5657C48.8123 26.5423 48.5193 26.5267 48.16 26.5188C47.8943 26.5149 47.5584 26.4485 47.3279 26.4407C47.0662 26.4368 46.7928 26.4212 46.4998 26.3899C46.3279 26.3704 46.2068 26.3587 46.1287 26.3548C45.9412 26.3431 45.8084 26.3431 45.6365 26.3157C45.5311 26.3001 45.2693 26.2767 44.8592 26.2454C44.5115 26.2181 43.6522 26.1204 42.2772 25.9407C42.1834 25.9251 42.078 26.0345 42.0037 26.1048C41.5506 26.5267 41.0311 26.9954 40.4334 27.515C39.6678 28.1751 39.1209 28.6517 38.3709 29.1244C38.2381 29.2064 38.0936 29.2689 37.9217 29.3158C37.4647 29.4369 37.1522 29.2338 36.8397 28.9213C36.5468 28.6244 36.2147 28.2455 35.8436 27.7768C34.8554 26.5268 33.9725 25.3393 33.203 24.2065C33.0898 24.0424 32.9882 23.8705 32.8944 23.683C32.8866 23.6596 32.871 23.6518 32.8437 23.6439C31.5429 23.4799 30.6875 23.3744 30.2929 23.3236C28.9687 23.1596 28.2773 23.0736 28.2148 23.0658C28.1249 23.058 27.9491 23.0424 27.6874 23.019C27.4999 23.0033 27.328 22.9838 27.1718 22.9565C26.9413 22.9174 26.7304 22.9252 26.4843 22.8861C26.1601 22.8315 25.8398 22.8432 25.5156 22.7924C25.1874 22.7455 24.8476 22.7611 24.5468 22.7182C24.2499 22.683 23.9999 22.6674 23.7929 22.6596C23.4882 22.6596 23.2382 22.644 23.0351 22.6244C22.7812 22.5932 22.4648 22.5775 22.082 22.5736C21.8163 22.5736 21.4999 22.558 21.1288 22.5346C20.1835 22.4799 19.2147 22.4955 18.2343 22.5932C18.1289 22.6049 17.9218 22.6361 17.6133 22.6908C17.2695 22.7611 16.9883 22.8744 16.6875 23.0658C16.3476 23.2846 16.0039 23.5502 15.6563 23.8627C15.2852 24.1869 14.7617 24.6674 14.0665 25.2963C12.7853 26.4643 11.422 27.5268 9.97268 28.4838C8.97268 29.1518 7.90628 29.7143 6.79688 30.1752C6.15235 30.4525 5.48438 30.6596 4.81248 30.8002C4.66795 30.8315 4.50389 30.8315 4.3281 30.808C4.08201 30.769 3.93748 30.6518 3.89451 30.4408C3.87497 30.3315 3.89451 30.2065 3.9531 30.0736C4.0156 29.9408 4.07419 29.8315 4.12498 29.7338C4.9492 28.3276 5.87888 26.7182 6.92188 24.9018C7.28516 24.2612 7.61329 23.6362 7.89063 23.0346C8.05079 22.6869 8.17188 22.3315 8.23047 21.9799C8.26563 21.769 8.23828 21.558 8.18359 21.3471C8.07812 20.9369 7.89062 20.5151 7.62109 20.0893C7.1289 19.308 6.72265 18.6518 6.40229 18.1127C6.31636 17.9721 6.12885 17.6439 5.8437 17.1283C4.8398 15.3275 3.7773 13.5463 2.832 11.89C2.68356 11.6283 2.50388 11.3002 2.29294 10.9017C2.10935 10.558 1.58982 9.57753 0.722645 7.95643C0.457025 7.46424 0.332025 6.73763 1.17186 6.73763C1.28124 6.73763 1.48827 6.79232 1.79295 6.89388C2.25389 7.05013 2.89065 7.32747 3.70705 7.70638C5.46875 8.5345 7.16796 9.44858 8.81256 10.4486C9.62897 10.9408 10.2814 11.3587 10.7696 11.6986C11.4805 12.1869 12.2462 12.8119 13.0665 13.5736C13.3477 13.8314 14.2462 14.64 15.7462 15.9994C16.1758 16.3939 16.6212 16.7377 17.0782 17.0346C17.2774 17.1596 17.5117 17.2807 17.7852 17.3901C17.9805 17.4682 18.2344 17.5268 18.5469 17.5619C18.8946 17.5971 19.2344 17.5971 19.5664 17.5658C19.7812 17.5502 19.9844 17.5346 20.1758 17.5346C20.4023 17.5307 20.6055 17.5151 20.793 17.4877C21.125 17.4408 21.4063 17.4526 21.7383 17.4018C21.8164 17.3901 21.9961 17.3705 22.2656 17.3471C22.5039 17.3276 22.7227 17.2768 22.9687 17.269C23.0742 17.2651 23.2148 17.2533 23.3906 17.2299C23.5352 17.2065 23.6758 17.1908 23.8125 17.183C24.0938 17.1596 24.3789 17.1205 24.6758 17.0619C24.8125 17.0307 24.9375 16.9838 25.0625 16.9213C25.3086 16.8002 25.4258 16.4877 25.4414 16.2338C25.4844 15.4799 25.5195 14.9486 25.5508 14.644C25.5625 14.5659 25.5938 14.4643 25.6524 14.3315C25.957 13.6362 26.8321 14.144 27.2969 14.4057C27.3594 14.4409 27.75 14.6675 28.4727 15.0776C28.7305 15.23 28.9805 15.3393 29.2187 15.4057C29.5195 15.4956 29.8281 15.4956 30.1289 15.4096C30.375 15.3432 30.7148 15.2339 31.1523 15.0815C31.5117 14.9565 31.8437 14.8393 32.1562 14.7182C34.5039 13.8432 36.8593 13.1205 39.2343 12.5424C40.8632 12.144 42.3593 11.9018 44.3632 11.5776C44.4687 11.5581 44.6523 11.5737 44.7382 11.4799C45.0937 11.1206 45.4101 10.7299 45.6874 10.3002C46.3398 9.30806 46.9101 8.28074 47.3593 7.19864C47.7812 6.16744 48.121 5.20255 48.371 4.30805C48.4413 4.04243 48.6718 3.19864 49.0585 1.78074C49.1679 1.37449 49.3632 0.968244 49.746 0.765144C50.0624 0.589364 50.5507 0.667488 50.8905 0.784675C51.3124 0.933115 51.7929 1.14015 52.1757 1.34327C53.7968 2.21436 55.2538 3.16746 56.5624 4.20266C56.9179 4.48391 57.3085 4.83939 57.7343 5.26127C58.7695 6.28077 59.5781 7.43316 60.1718 8.71437C60.2304 8.84718 60.2773 8.97999 60.3085 9.1089C60.3125 9.12843 60.3281 9.14015 60.3476 9.14405C60.5781 9.1714 60.7656 9.18702 60.9179 9.19093C61.1718 9.19874 61.4218 9.25343 61.6914 9.27687C61.8398 9.29249 61.9414 9.3003 62.0039 9.30812C66.7148 9.87843 71.3437 10.7222 75.9019 11.8472C77.0035 12.1207 78.0972 12.4214 79.1871 12.7496C81.2848 13.3863 83.3082 14.1246 85.2457 14.9801C86.3941 15.484 87.4527 16.0153 88.4098 16.566C89.2535 17.0581 90.0309 17.5972 90.7457 18.2027C90.9371 18.3628 91.1246 18.5503 91.2964 18.7612C91.4996 18.9995 91.5503 19.3628 91.2925 19.5777C91.1988 19.6558 91.0894 19.7222 90.9527 19.7769C90.355 20.0152 89.8394 20.2066 89.4097 20.3589C88.5581 20.6558 87.6363 20.9566 86.6558 21.2534C86.2769 21.3706 85.8589 21.4839 85.4058 21.5894C85.3745 21.5972 85.3628 21.6128 85.3784 21.6441C85.4253 21.7534 85.4644 21.8628 85.4839 21.9839C85.5034 22.0894 85.4995 22.2027 85.4722 22.3316C85.3628 22.8863 85.0777 23.312 84.605 23.6089C84.23 23.8471 83.7691 24.0346 83.2183 24.1831C82.4996 24.3706 81.8121 24.5307 81.1519 24.6675C79.4683 25.0151 78.441 25.2222 78.066 25.2925C76.9801 25.4995 75.9722 25.6675 75.0465 25.7925C74.816 25.8159 74.6285 25.8432 74.4801 25.8628C74.277 25.8901 74.1051 25.9097 73.9645 25.9214C73.7301 25.937 73.5153 25.9878 73.2809 25.9956C73.1207 25.9956 72.8942 26.0112 72.609 26.0425C72.3434 26.0659 72.1129 26.0815 71.9332 26.0815C70.9371 26.0971 69.9527 26.0972 68.9723 26.0776C68.9684 26.0776 68.9372 26.0776 68.8864 26.0659C68.8551 26.0659 68.8239 26.0659 68.7926 26.0776C68.777 26.0815 68.7614 26.0932 68.7536 26.1089C68.2926 26.9331 67.8473 27.6831 67.4177 28.3589C66.3005 30.1206 65.0661 31.73 63.7224 33.1831C63.3786 33.5463 62.9841 33.937 62.531 34.3589C61.4021 35.3901 60.1521 36.187 58.781 36.7534C58.1677 37.0112 57.5427 37.187 56.9021 37.2924C56.5466 37.3471 56.1911 37.1752 56.2068 36.7963C56.2146 36.7026 56.2654 36.519 56.3747 36.2495C56.9333 34.8706 57.2224 33.4175 57.2536 31.8901C57.2615 31.6674 57.2615 31.4526 57.2497 31.2533C57.2302 30.9252 57.2224 30.7611 57.2224 30.7611C57.2146 30.4526 57.2185 30.1127 57.1833 29.8393C57.1521 29.6283 57.1365 29.394 57.1247 29.144C57.1247 29.0776 57.1052 29.0735 57.0622 29.1242ZM38.7922 25.2062C38.7375 25.0422 38.7453 24.8469 38.9172 24.7766C39.0032 24.7336 39.0735 24.7219 39.1125 24.7297C39.8743 24.9016 40.6398 25.0344 41.4094 25.1359C41.9172 25.2023 42.7024 25.2961 43.7688 25.4172C43.9212 25.4328 44.0813 25.4328 44.222 25.4562C44.5305 25.5148 44.847 25.5109 45.1438 25.5578C45.3431 25.5812 45.4954 25.5969 45.6048 25.5969C45.7806 25.6047 45.9329 25.6125 46.0579 25.6359C46.4837 25.6984 46.886 25.6828 47.3118 25.7375C47.6868 25.7922 48.097 25.7648 48.472 25.8156C48.6986 25.8469 48.9564 25.8625 49.2611 25.8703C49.5618 25.8703 49.8275 25.8859 50.0423 25.9094C50.3118 25.9406 50.597 25.9562 50.9017 25.9562C51.0345 25.9562 51.3236 25.9719 51.7532 26.0031C52.1829 26.0305 52.6517 26.05 53.1516 26.05C53.6282 26.05 54.2336 26.0969 54.7766 26.0656C55.3431 26.0344 55.7766 26.0734 56.3078 25.9875C56.4953 25.964 56.7493 25.9328 57.0735 25.9015C57.0891 25.9015 57.1047 25.8898 57.1086 25.8742C57.1242 25.839 57.1399 25.7961 57.1516 25.7531C57.3117 25.0422 57.9172 24.4093 58.4563 23.9523C59.1047 23.4093 59.7844 22.9328 60.4993 22.5148C60.7805 22.3547 61.0579 22.2179 61.3274 22.1047C61.4719 22.0422 61.6087 21.9992 61.7219 21.9836C62.1399 21.9211 62.2337 22.4484 61.8704 22.589C61.5657 22.7023 61.2962 22.8273 61.0618 22.964C60.2805 23.4054 59.5501 23.925 58.8704 24.5187C58.6712 24.6984 58.468 24.9055 58.2649 25.1437C58.0501 25.4055 57.8938 25.7023 57.8079 26.0422C57.7376 26.2805 57.7024 26.4875 57.6907 26.6711C57.6712 27.1281 57.6868 27.5734 57.7376 27.9953C57.761 28.1711 57.7766 28.3156 57.7805 28.4328C57.7923 28.6437 57.8001 28.7843 57.8118 28.8625C57.847 29.0929 57.8704 29.3078 57.8704 29.5031C57.8704 29.6828 57.886 29.9367 57.9095 30.2687C57.9407 30.5929 57.9563 30.8468 57.9563 31.0343C57.9641 31.3078 57.9563 31.7296 57.9563 32.3116C57.9563 32.4874 57.9407 32.6984 57.9173 32.9327C57.9016 33.046 57.8743 33.253 57.8313 33.5499C57.7532 34.1671 57.5969 34.8585 57.3626 35.6241C57.2766 35.9093 57.1673 36.2022 57.0345 36.503C57.0305 36.5147 57.0345 36.5304 57.0423 36.5421C57.0501 36.5499 57.0618 36.5499 57.0774 36.5499C57.843 36.3585 58.5462 36.1085 59.1829 35.7921C60.4368 35.171 61.597 34.3233 62.6595 33.2491C64.6204 31.2647 66.2689 28.9874 67.6595 26.5772C68.1283 25.7647 68.5658 24.9874 68.9837 24.2452C69.0931 24.046 69.39 23.9952 69.5423 24.171C69.722 24.3858 69.5814 24.6553 69.4525 24.8858C69.3392 25.0889 69.2376 25.253 69.1556 25.3897C69.1517 25.4014 69.1517 25.4053 69.1556 25.4171C69.1595 25.4249 69.1673 25.4327 69.1829 25.4327C70.1907 25.4366 70.9368 25.4327 71.4095 25.4249C71.5892 25.4249 71.765 25.4171 71.9408 25.3936C72.0658 25.378 72.2455 25.3702 72.4681 25.3546C72.808 25.3272 73.0658 25.3077 73.2533 25.2843C74.9838 25.1085 76.7845 24.8272 78.6595 24.4522C79.1439 24.3546 80.1243 24.1514 81.5931 23.8389C82.0111 23.7491 82.4876 23.6358 83.0267 23.4952C83.4876 23.3702 83.8861 23.2061 84.2064 23.0147C84.5775 22.7842 84.9173 22.296 84.6869 21.8545C84.6595 21.7998 84.6204 21.7803 84.5658 21.792C83.7455 21.9678 82.8119 22.1397 81.7767 22.3155C81.0657 22.4327 80.5111 22.5342 80.1048 22.6241C79.968 22.6553 79.8704 22.6592 79.8079 22.6436C79.6751 22.6123 79.6048 22.5303 79.5891 22.3897C79.5618 22.2061 79.6751 22.0616 79.8469 22.0186C80.3001 21.9053 80.9564 21.7764 81.8158 21.628C82.3275 21.542 83.1126 21.378 84.1829 21.1436C84.6439 21.0459 85.0111 20.9561 85.2767 20.8897C87.0423 20.4248 88.8158 19.8467 90.597 19.1436C90.6517 19.124 90.6556 19.0928 90.6127 19.0576C90.308 18.7608 89.9799 18.4834 89.6205 18.2178C88.8002 17.6201 87.89 17.0616 86.8939 16.5576C85.5931 15.9013 84.2533 15.2998 82.8861 14.7764C80.8588 13.9991 78.8236 13.3428 76.7806 12.8116C72.9564 11.8233 69.0931 11.0343 65.1986 10.4639C63.265 10.1748 61.8588 9.99514 60.9681 9.9092C60.6517 9.87795 60.2845 9.85452 59.8704 9.83108C59.2532 9.79592 58.8899 9.76467 58.7766 9.74514C58.5305 9.69827 58.3547 9.51858 58.4485 9.26858C58.4719 9.19046 58.5266 9.13967 58.5969 9.10452C58.6985 9.05765 58.7766 9.03421 58.8313 9.04202C58.9992 9.06156 59.2219 9.08108 59.4875 9.10843C59.511 9.11233 59.5188 9.10452 59.5305 9.0928C59.5422 9.07718 59.5461 9.06155 59.5344 9.04593C59.2219 8.36234 58.8625 7.75293 58.4641 7.20613C57.7454 6.21785 56.8586 5.32723 55.8118 4.52643C54.597 3.59674 53.3118 2.76863 51.9563 2.04203C51.5461 1.81547 51.0891 1.61234 50.6711 1.46781C50.5031 1.40922 50.3586 1.37406 50.2297 1.36234C50.1984 1.35843 50.1438 1.37015 50.0813 1.39359C49.9172 1.4639 49.7688 1.85843 49.7297 2.01468C49.4524 3.04588 49.2375 3.83108 49.0891 4.38578C48.8703 5.19828 48.5617 6.09278 48.1828 7.07718C47.8 8.06156 47.3117 8.97948 46.7609 9.88578C46.4719 10.3545 46.1359 10.8389 45.7453 11.3467C45.7375 11.3584 45.7375 11.374 45.7453 11.3857C45.7492 11.3936 45.7609 11.4014 45.7688 11.4014C46.093 11.3701 46.3742 11.3115 46.675 11.2998C46.9992 11.2842 47.3235 11.2178 47.6281 11.2139C48.0031 11.2139 48.5266 11.1592 48.925 11.1592C49.1281 11.1592 49.3274 11.167 49.5266 11.167C49.7532 11.1709 49.9797 11.2022 50.0188 11.4522C50.05 11.667 49.8625 11.8076 49.6672 11.8076C49.05 11.8115 48.6907 11.8154 48.5969 11.8272C48.4329 11.8467 48.2375 11.8584 48.0149 11.8623C47.8782 11.8701 47.6868 11.8857 47.4251 11.9092C46.5305 11.999 45.6438 12.1084 44.7766 12.2373C43.3704 12.4482 42.1439 12.6553 41.1048 12.8623C38.7337 13.3389 36.4017 14.0029 34.1087 14.7803C33.7297 14.9053 33.3743 15.0303 33.0462 15.1553C32.0579 15.5264 31.2454 15.8116 30.6087 16.0186C30.1594 16.167 29.7454 16.2139 29.3587 16.1592C28.9837 16.1084 28.6126 15.9795 28.2532 15.7764C27.3078 15.2373 26.8118 14.9639 26.7688 14.9366C26.6086 14.8467 26.4641 14.7803 26.3273 14.7217C26.2922 14.7061 26.2648 14.7178 26.2609 14.7608C26.2336 14.9092 26.2023 15.128 26.1984 15.3155C26.1984 15.4092 26.1906 15.6358 26.1828 15.9873C26.175 16.2022 26.1437 16.3702 26.0969 16.5772C25.968 17.1827 25.6086 17.5577 25.0149 17.7061C24.8586 17.7491 24.6907 17.7959 24.5618 17.8116C24.2766 17.8428 24.0461 17.8741 23.886 17.9014C23.7844 17.9092 23.6711 17.9209 23.5305 17.9209C23.425 17.9248 23.3118 17.9366 23.1828 17.9639C23.093 17.9795 22.9211 17.9952 22.6555 18.0147C22.3899 18.0342 22.1594 18.0928 21.9172 18.0967C21.6438 18.1084 21.3078 18.1709 21.0149 18.1827C20.636 18.1983 20.1868 18.2647 19.8118 18.2686C19.2923 18.2764 18.9329 18.2803 18.7298 18.2764C18.4056 18.2764 18.1517 18.2452 17.9485 18.1905C17.4056 18.0459 16.9016 17.8077 16.4368 17.4717C15.9525 17.1241 15.5032 16.7608 15.0891 16.3858C14.9094 16.2178 13.9836 15.3741 12.3157 13.8546C11.4681 13.0812 10.5501 12.3858 9.56183 11.753C7.44073 10.4014 5.24543 9.20222 2.97203 8.15922C2.35484 7.87406 1.81583 7.65531 1.36263 7.49906C1.3431 7.49515 1.32748 7.49515 1.32357 7.49906C1.30795 7.51468 1.30795 7.53421 1.32748 7.57327C1.49936 7.88577 1.68686 8.23344 1.88998 8.62018C2.7142 10.1983 3.44078 11.546 4.22978 12.8858C5.17119 14.4874 6.04228 16.003 6.84308 17.4405C7.15167 17.9952 7.57355 18.6827 8.09698 19.503C8.27667 19.7803 8.44073 20.0733 8.59698 20.3897C8.96417 21.1241 9.03448 21.8702 8.81573 22.6202C8.76104 22.8116 8.64385 23.0968 8.47198 23.4835C8.34698 23.7686 8.20636 24.046 8.05792 24.3155C7.53448 25.2608 7.07354 26.0889 6.65952 26.796C5.43682 28.9171 4.81182 29.9874 4.79232 30.0265C4.7806 30.0421 4.7806 30.0499 4.7845 30.0617C4.79232 30.0734 4.80013 30.0773 4.81185 30.0734C5.47201 29.9171 6.09705 29.7023 6.68685 29.4484C7.84705 28.9367 8.93685 28.3429 10.0032 27.6046C11.1712 26.7921 12.2766 25.9366 13.3157 25.003C14.5657 23.878 15.2024 23.3116 15.2219 23.2921C15.4993 23.046 15.8001 22.8077 16.1282 22.5772C16.3899 22.3936 16.6438 22.2491 16.8938 22.1515C17.0813 22.0772 17.3587 22.0108 17.718 21.9522C18.2141 21.878 18.4954 21.839 18.5618 21.839C19.093 21.8272 19.3938 21.8155 19.4719 21.8155C20.136 21.7921 20.7649 21.8311 21.4641 21.8311C21.6985 21.8311 21.9993 21.8429 22.3704 21.8741C22.7532 21.9054 23.0579 21.921 23.2806 21.921C23.6868 21.921 24.1399 21.9991 24.5423 22.003C24.761 22.0108 24.9719 22.0186 25.1868 22.0499C25.4368 22.0811 25.6516 22.0968 25.8313 22.0968C26.0305 22.0968 26.2376 22.1515 26.468 22.171C26.7844 22.2022 26.9485 22.214 26.9485 22.214C28.5774 22.4015 30.2024 22.5929 31.8274 22.796C33.0969 22.9561 34.3704 23.128 35.636 23.3077C35.7805 23.3272 35.8782 23.3546 35.9329 23.3858C36.0344 23.4483 36.0813 23.5499 36.0735 23.6983C36.0423 24.0577 35.6829 24.0108 35.4016 23.9874C35.2649 23.9796 35.1516 23.964 35.0579 23.9522C34.6282 23.8858 34.1868 23.8233 33.7376 23.7647C33.7298 23.7608 33.718 23.7647 33.7141 23.7765C33.7063 23.7804 33.7063 23.7921 33.7141 23.7999C34.5423 24.9561 35.4094 26.0968 36.3235 27.2296C36.6868 27.6827 37.0345 28.0812 37.3626 28.4366C37.39 28.4678 37.4525 28.5147 37.5462 28.5889C37.6556 28.6749 37.7962 28.6241 37.8939 28.5655C38.6673 28.1085 39.3314 27.5343 40.0111 26.9249C40.0306 26.9093 40.4369 26.5499 41.2299 25.8546C41.2533 25.8312 41.2494 25.8155 41.2221 25.8077C41.2025 25.796 41.1713 25.7843 41.1361 25.7804C40.4955 25.6827 39.8588 25.5616 39.2338 25.4249C39.0971 25.3937 38.8313 25.3273 38.7922 25.2062ZM56.9682 26.7648C56.9721 26.7219 56.9799 26.6867 56.9838 26.6555C56.9956 26.6203 56.9721 26.6047 56.937 26.6086C56.8276 26.6359 56.6206 26.6828 56.4526 26.6984C56.3159 26.7023 56.1128 26.7219 55.8432 26.7492C55.6245 26.7687 55.4213 26.7805 55.2377 26.7805C54.2846 26.7922 53.4213 26.7844 52.6361 26.7687C52.6244 26.7687 52.6205 26.7766 52.6205 26.7844C52.6088 27.0461 52.6049 27.2648 52.5619 27.5109C52.394 28.464 52.1518 29.4015 51.8275 30.3117C51.6205 30.9055 51.3588 31.4797 51.0463 32.0187C51.0424 32.0304 51.0424 32.0422 51.0463 32.05C51.058 32.0617 51.0658 32.0656 51.0775 32.0656C52.0268 32.0031 52.8744 31.7297 53.7064 31.2453C54.7025 30.6555 55.5619 29.9055 56.2767 28.9875C56.5463 28.6437 56.7221 28.3078 56.9721 27.8781C56.9877 27.8468 56.9994 27.8234 57.0033 27.7922C57.0111 27.7453 57.015 27.714 57.015 27.6984C56.9642 27.2804 56.9487 26.9719 56.9682 26.7648Z" fill="black"/>
</svg>
